<svg xmlns="http://www.w3.org/2000/svg" width="82.795" height="56.507" fill="none" viewBox="0 0 82.795 56.507">
  <g fill="#86185f">
    <path d="M77.832 54.037c-1.758 0-2.394-1.307-2.394-3.046V49.61c0-1.763.642-3.07 2.394-3.07h.094c1.521 0 2.232 1.163 2.232 3.308v1c0 2.12-.71 3.19-2.232 3.19zm.973 2.451h.05c2.494 0 3.94-1.95 3.94-5.453v-1.382c0-3.502-1.521-5.572-3.89-5.572h-.069c-1.54 0-2.587.763-3.111 1.976h-.287V39.11h-2.612v17.134h2.562v-1.882h.262c.524 1.288 1.54 2.12 3.155 2.12m-15.02-2.239h-.093c-1.04 0-1.64-.45-1.64-1.213v-.094c0-.738.474-1.238 2.064-1.425l2.756-.332v.05c0 1.74-.76 3.02-3.086 3.02m5.599-.33v-4.998c0-3.239-1.64-4.834-4.44-4.834h-.093c-2.612 0-4.601 1.358-4.888 4.403h2.656c.118-1.62 1.022-2.045 2.138-2.045h.094c1.234 0 2.02.644 2.02 2.502v.331l-3.155.381c-2.774.307-4.152 1.383-4.152 3.36v.117c0 2.002 1.471 3.36 3.728 3.36h.094c1.658 0 2.68-.67 3.204-1.809h.287l.187 1.57h4.084v-2.333H69.39l-.007-.006Zm-17.42-.12V40.02h-2.63v16.233h9.09v-2.454h-6.46zm-13.884.45h-.094c-1.041 0-1.64-.45-1.64-1.213v-.093c0-.738.474-1.239 2.064-1.426l2.75-.332v.05c0 1.74-.761 3.02-3.087 3.02m5.6-.33v-4.997c0-3.24-1.64-4.834-4.44-4.834h-.093c-2.613 0-4.602 1.357-4.888 4.402h2.656c.118-1.62 1.022-2.045 2.138-2.045h.094c1.234 0 2.013.644 2.013 2.502v.331L38 49.666c-2.775.306-4.153 1.382-4.153 3.358v.12c0 2 1.472 3.357 3.729 3.357h.093c1.659 0 2.681-.67 3.205-1.807h.287l.187 1.57h4.083v-2.333h-1.758v-.007zm-13.692 0c-.617 0-.76-.188-.76-.764V46.69h3.13v-2.358h-3.13v-5.91c-.855.995-2.613 1.29-2.613 1.29v4.62h-2.157v2.358h2.157v6.191c0 1.976 1.235 3.377 3.367 3.377h2.444v-2.333h-2.444.006zm-12.955.33h-.094c-1.041 0-1.64-.45-1.64-1.212v-.094c0-.738.474-1.238 2.064-1.426l2.756-.33v.05c0 1.737-.76 3.02-3.086 3.02m5.598-.332v-4.997c0-3.24-1.64-4.834-4.439-4.834h-.093c-2.613 0-4.601 1.357-4.888 4.403h2.656c.118-1.62 1.022-2.045 2.138-2.045h.094c1.234 0 2.02.644 2.02 2.501v.331l-3.155.382c-2.774.306-4.152 1.382-4.152 3.358v.12c0 2 1.471 3.357 3.728 3.357h.094c1.658 0 2.68-.669 3.204-1.807h.287l.187 1.57h4.084v-2.333h-1.76l-.006-.006Zm-14.427-3.62c0 2.688-.922 3.495-2.892 3.495H2.625V42.474h2.68c1.97 0 2.893.788 2.893 3.496zM5.306 40.027H0v16.234h5.318c3.23 0 5.505-1.976 5.505-5.953v-4.334c0-3.977-2.275-5.953-5.505-5.953m54.016-2.232h.05c2.656 0 4.651-1.57 4.77-4.546H61.59c-.05 1.407-.83 2.213-2.232 2.213h-.05c-1.59 0-2.325-.906-2.325-3.095v-1.526c0-2.214.735-3.096 2.325-3.096h.05c1.403 0 2.182.788 2.232 2.214h2.562c-.118-2.976-2.113-4.57-4.769-4.57h-.05c-2.893 0-4.913 1.831-4.913 5.452v1.526c0 3.62 2.02 5.428 4.913 5.428zm-10.087-.238h2.612V25.628h-2.612v11.925zm-9.184 0h3.847l3.49-11.924h-2.73l-2.538 9.593h-.262l-2.562-9.593h-2.731l3.485 11.925zm-7.949 0h2.612V25.628h-2.612v11.925zm-8.398.238h.143c3.23 0 5.506-1.976 5.506-5.954h-2.631c0 2.715-.904 3.571-2.875 3.571h-.143c-1.97 0-2.874-.856-2.874-3.57v-4.81c0-2.713.904-3.57 2.874-3.57h.143c1.97 0 2.875.857 2.875 3.57h2.63c0-3.977-2.275-5.953-5.505-5.953h-.143c-3.23 0-5.505 1.976-5.505 5.954v4.808c0 3.978 2.276 5.954 5.505 5.954zM43.059 4.976l-1.27.96 6.217 8.275 1.27-.96zm28.426 3.13-19.258 6.652.517 1.507 19.259-6.65zM38.99 5.318 33.426 17.29l1.44.674 5.565-11.97-1.44-.674z"/>
    <path d="M34.165 20.111a1.221 1.221 0 0 0-1.658-.476 1.229 1.229 0 0 0-.474 1.664 1.22 1.22 0 0 0 1.658.475c.586-.325.798-1.07.474-1.663zm-4.04 2.245a3.417 3.417 0 0 1 1.328-4.634 3.396 3.396 0 0 1 4.62 1.332 3.417 3.417 0 0 1-1.328 4.634 3.396 3.396 0 0 1-4.62-1.332zm21.161-6.954a1.221 1.221 0 0 0-1.658-.476 1.229 1.229 0 0 0-.474 1.664 1.22 1.22 0 0 0 1.658.475c.586-.325.798-1.07.474-1.663zm-4.04 2.245a3.417 3.417 0 0 1 1.328-4.634 3.396 3.396 0 0 1 4.62 1.332 3.417 3.417 0 0 1-1.328 4.634 3.396 3.396 0 0 1-4.62-1.332zM41.94 2.814a1.221 1.221 0 0 0-1.658-.475 1.229 1.229 0 0 0-.474 1.663c.324.588 1.066.8 1.659.475.586-.325.797-1.07.473-1.663zM37.9 5.058A3.417 3.417 0 0 1 39.228.425a3.396 3.396 0 0 1 4.62 1.332 3.417 3.417 0 0 1-1.328 4.634 3.396 3.396 0 0 1-4.62-1.333Zm37.325 2.314a1.221 1.221 0 0 0-1.658-.475 1.229 1.229 0 0 0-.474 1.664c.324.587 1.066.8 1.659.475a1.23 1.23 0 0 0 .474-1.664zm-4.04 2.245a3.417 3.417 0 0 1 1.328-4.633 3.396 3.396 0 0 1 4.62 1.332 3.417 3.417 0 0 1-1.328 4.633 3.396 3.396 0 0 1-4.62-1.332z"/>
  </g>
</svg>
